{"asset":{"version":"2.0","generator":"gltfpack 1.0"},"extensionsUsed":["KHR_mesh_quantization","KHR_texture_transform"],"extensionsRequired":["KHR_mesh_quantization"],"buffers":[{"uri":"street_lamp_01_quant.bin","byteLength":536940}],"bufferViews":[{"buffer":0,"byteOffset":0,"byteLength":211968,"byteStride":12,"target":34962},{"buffer":0,"byteOffset":211968,"byteLength":70656,"byteStride":4,"target":34962},{"buffer":0,"byteOffset":282624,"byteLength":70656,"byteStride":4,"target":34962},{"buffer":0,"byteOffset":353280,"byteLength":183660,"target":34963}],"accessors":[{"bufferView":0,"byteOffset":0,"componentType":5126,"count":17408,"type":"VEC3","min":[-0.352172852,0,-0.193244934],"max":[0.352172852,3.87060547,0.193244934]},{"bufferView":1,"byteOffset":0,"componentType":5120,"count":17408,"type":"VEC3","normalized":true},{"bufferView":2,"byteOffset":0,"componentType":5123,"count":17408,"type":"VEC2","normalized":true},{"bufferView":3,"byteOffset":0,"componentType":5123,"count":90822,"type":"SCALAR"},{"bufferView":0,"byteOffset":208896,"componentType":5126,"count":256,"type":"VEC3","min":[-0.173629761,3.13769531,-0.173950195],"max":[0.173629761,3.50952148,0.173873901]},{"bufferView":1,"byteOffset":69632,"componentType":5120,"count":256,"type":"VEC3","normalized":true},{"bufferView":2,"byteOffset":69632,"componentType":5123,"count":256,"type":"VEC2","normalized":true},{"bufferView":3,"byteOffset":181644,"componentType":5123,"count":1008,"type":"SCALAR"}],"samplers":[{"magFilter":9729,"minFilter":9987}],"images":[{"name":"street_lamp_01_nor_gl_1k.exr","uri":"street_lamp_01_nor_gl_1k.png"},{"name":"street_lamp_01_diff_1k.jpg","uri":"street_lamp_01_diff_1k.jpg"},{"name":"street_lamp_01_rough_1k.exr","uri":"street_lamp_01_rough_1k.png"}],"textures":[{"sampler":0,"source":0},{"sampler":0,"source":1},{"sampler":0,"source":2}],"materials":[{"name":"street_lamp_01","pbrMetallicRoughness":{"baseColorTexture":{"index":1,"extensions":{"KHR_texture_transform":{"offset":[0.00362605508,0.00362598896],"scale":[15.5860701,15.8876038]}}},"metallicRoughnessTexture":{"index":2,"extensions":{"KHR_texture_transform":{"offset":[0.00362605508,0.00362598896],"scale":[15.5860701,15.8876038]}}}},"normalTexture":{"index":0,"extensions":{"KHR_texture_transform":{"offset":[0.00362605508,0.00362598896],"scale":[15.5860701,15.8876038]}}},"doubleSided":true},{"name":"street_lamp_01_glass","pbrMetallicRoughness":{"baseColorFactor":[1,1,1,0.25],"baseColorTexture":{"index":1,"extensions":{"KHR_texture_transform":{"offset":[0.140745267,0.222429931],"scale":[12.2254572,9.52621841]}}},"metallicRoughnessTexture":{"index":2,"extensions":{"KHR_texture_transform":{"offset":[0.140745267,0.222429931],"scale":[12.2254572,9.52621841]}}}},"normalTexture":{"index":0,"extensions":{"KHR_texture_transform":{"offset":[0.140745267,0.222429931],"scale":[12.2254572,9.52621841]}}},"alphaMode":"BLEND","doubleSided":true}],"meshes":[{"primitives":[{"attributes":{"POSITION":0,"NORMAL":1,"TEXCOORD_0":2},"indices":3,"material":0},{"attributes":{"POSITION":4,"NORMAL":5,"TEXCOORD_0":6},"indices":7,"material":1}]}],"nodes":[{"mesh":0}],"scenes":[{"name":"Fog"},{"name":"Scene","nodes":[0]}],"scene":1}